<svg version="1.1" xmlns="http://www.w3.org/2000/svg" xmlns:xlink="http://www.w3.org/1999/xlink" width="682.68556" height="403.05581" viewBox="0,0,682.68556,403.05581"><g transform="translate(15.39109,27.56126)"><g fill="#000000" stroke="none" stroke-width="0.5" stroke-miterlimit="10"><path d="M651.93384,30.36866c0.172,1.72005 -0.53773,3.5031 -0.13485,5.18413c0.73422,3.06358 4.23966,6.22027 5.3128,9.4397c2.23566,6.70698 3.5093,11.70167 3.69621,18.5665c0.04667,1.71422 2.27662,6.03926 2.66285,7.97667c0.46737,2.34445 0.68323,4.73556 1.17903,7.07416c4.02111,18.96691 2.29768,21.76534 2.16413,51.08986c-0.01399,3.07152 -1.46441,6.10983 -1.5015,9.08365c-0.23911,19.16849 -0.31114,38.34248 0,57.50993c0.05321,3.27795 1.48565,6.61948 1.5015,9.983c0.07785,16.51633 0.06206,33.03315 0,49.54955c-0.01163,3.09471 -1.4003,6.07253 -1.5015,9.08365c-0.24841,7.39074 0.72986,15.69448 -0.39062,23.35113c-1.35252,9.2422 -4.83518,13.25174 -8.07504,21.92979c-0.7949,2.12917 -0.64852,4.51033 -1.24337,6.70382c-0.51499,1.89901 -2.19699,5.13046 -2.30298,6.80924c-0.94825,15.01984 1.99676,16.41425 -3.125,28.70646c-3.72782,8.94677 -17.81168,14.00923 -26.88887,14.0015c-60.79952,-0.05175 -121.60474,-0.82956 -182.39862,0c-6.48531,0.08849 -12.83817,1.85779 -19.26218,2.75174c-5.9963,0.83443 -13.63693,1.05122 -18.45529,1.58123c-9.10327,1.00134 -17.82677,3.15615 -27.12229,3.17454c-20.4956,0.04054 -40.99269,-0.23989 -61.48692,0c-2.97635,0.03484 -6.00943,1.49948 -9.08365,1.5015c-97.59758,0.06406 -195.19528,0.12849 -292.79279,0c-9.01932,-0.01187 -15.55839,-4.13752 -21.09375,-10.54687c-2.84141,-3.29006 -3.88678,-9.99341 -3.90625,-14.45312c-0.12452,-28.52826 -0.06306,-57.05713 0,-85.58559c0.01371,-6.20429 2.7043,-12.07918 3.003,-18.29321c2.78668,-57.97192 2.28711,-112.87842 1.5015,-173.40061c-0.03267,-2.51689 -2.09725,-6.82096 -2.66285,-9.90191c-1.34802,-7.34303 -4.76485,-14.5807 -4.84466,-22.12799c-0.11643,-11.0104 -0.07606,-22.02228 0,-33.03303c0.02448,-3.5431 0.85203,-9.03375 1.89616,-11.95627c0.83705,-4.66041 2.9657,-8.87251 6.00218,-12.25254c2.65698,-3.7188 6.09345,-6.65237 10.46352,-6.94371c0.81764,-0.28141 1.65446,-0.5216 2.50798,-0.7181c0.30649,-0.15996 0.61618,-0.31333 0.92889,-0.46036c3.61095,-2.02495 7.77578,-3.17953 12.21027,-3.17953c0.53635,0 1.06875,0.01689 1.5967,0.05017c5.04134,-0.33257 10.18429,-0.11136 14.91981,-0.05017c3.3309,0.04305 6.75416,1.49268 9.983,1.5015c122.2975,0.33405 244.59599,-0.12884 366.89388,0c5.22944,0.00551 11.90508,1.28748 16.9147,2.78442c3.41233,1.01964 6.63308,2.99019 10.18696,3.22159c3.7452,0.24385 7.6317,-0.19549 11.35463,0.59532c6.02921,1.28071 11.91032,3.81006 18.07325,3.90918c18.36732,0.29541 36.74201,0.31004 55.10908,0c9.15332,-0.15451 17.39027,-5.9669 26.49951,-6.00601c29.02876,-0.12462 58.05833,-0.12462 87.08709,0c14.11554,0.0606 25,10.44316 25,25c0,9.46939 -4.60395,17.16906 -11.70643,21.41316c0.71783,2.46512 1.24362,4.51041 1.33077,5.38193z"/></g></g></svg>